HIERARCHY
ROOT Hips
{
  OFFSET 0 89.5177 0.535
  CHANNELS 6 Xposition Yposition Zposition Zrotation Xrotation Yrotation
  JOINT Spine
  {
    OFFSET 12.0259 -0.162855 1.69034e-005
    CHANNELS 3 Zrotation Xrotation Yrotation
    JOINT Spine1
    {
      OFFSET 15.3169 -0.0121922 0
      CHANNELS 3 Zrotation Xrotation Yrotation
      JOINT Spine2
      {
        OFFSET 15.3176 -0.0121908 0
        CHANNELS 3 Zrotation Xrotation Yrotation
        JOINT Neck
        {
          OFFSET 19.9142 1.56338 0
          CHANNELS 3 Zrotation Xrotation Yrotation
          JOINT Head
          {
            OFFSET 6.92651 0 0
            CHANNELS 3 Zrotation Xrotation Yrotation
            End Site
            {
              OFFSET 20.7666 0 0
            }
          }
          JOINT LeftShoulder
          {
            OFFSET -6.20654 0.708824 7.28219
            CHANNELS 3 Zrotation Xrotation Yrotation
            JOINT LeftArm
            {
              OFFSET 14.108 0 -1.52588e-005
              CHANNELS 3 Zrotation Xrotation Yrotation
              JOINT LeftForeArm
              {
                OFFSET 28.5802 0 0
                CHANNELS 3 Zrotation Xrotation Yrotation
                JOINT LeftHand
                {
                  OFFSET 27.092 0 0
                  CHANNELS 3 Zrotation Xrotation Yrotation
                  End Site
                  {
                    OFFSET 9.55928 -0.186424 0.145352
                  }
                }
              }
            }
          }
          JOINT RightShoulder
          {
            OFFSET -6.20654 0.708866 -7.28218
            CHANNELS 3 Zrotation Xrotation Yrotation
            JOINT RightArm
            {
              OFFSET 14.108 0 1.52588e-005
              CHANNELS 3 Zrotation Xrotation Yrotation
              JOINT RightForeArm
              {
                OFFSET 28.5802 0 0
                CHANNELS 3 Zrotation Xrotation Yrotation
                JOINT RightHand
                {
                  OFFSET 27.092 0 0
                  CHANNELS 3 Zrotation Xrotation Yrotation
                  End Site
                  {
                    OFFSET 9.55929 -0.186417 -0.145354
                  }
                }
              }
            }
          }
        }
      }
    }
  }
  JOINT LeftUpLeg
  {
    OFFSET 0.005 -0.535 8.837
    CHANNELS 3 Zrotation Xrotation Yrotation
    JOINT LeftLeg
    {
      OFFSET 39.9035 0 0
      CHANNELS 3 Zrotation Xrotation Yrotation
      JOINT LeftFoot
      {
        OFFSET 39.6689 0 0
        CHANNELS 3 Zrotation Xrotation Yrotation
        JOINT LeftToe
        {
          OFFSET 10.1624 13.6296 0
          CHANNELS 3 Zrotation Xrotation Yrotation
          End Site
          {
            OFFSET 8.38147 0 0
          }
        }
      }
    }
  }
  JOINT RightUpLeg
  {
    OFFSET 0.005 -0.535 -8.837
    CHANNELS 3 Zrotation Xrotation Yrotation
    JOINT RightLeg
    {
      OFFSET 39.9035 0 0
      CHANNELS 3 Zrotation Xrotation Yrotation
      JOINT RightFoot
      {
        OFFSET 39.6689 0 0
        CHANNELS 3 Zrotation Xrotation Yrotation
        JOINT RightToe
        {
          OFFSET 10.1624 13.6296 0
          CHANNELS 3 Zrotation Xrotation Yrotation
          End Site
          {
            OFFSET 8.38147 0 0
          }
        }
      }
    }
  }
}
MOTION
Frames:	17
Frame Time:	0.0333333
393.739 88.3987 -13.0401 -165.597 -81.6127 103.788 -1.64283 0.0711659 -1.09608 -3.28399 0.174173 -2.18948 -3.28399 0.174173 -2.18949 -8.30749e-012 -9.0191e-006 -5.27751e-005 12.1061 8.18034 -2.86192 177.764 -16.8776 -97.6611 -17.5661 -44.0246 1.06246 -6.40457e-006 -6.36111e-015 -0 -41.5592 -26.7424 -30.055 178.346 7.60212 102.312 69.8506 64.8842 -78.1567 -0.827048 7.95139e-016 -3.97569e-016 -39.4498 13.9111 21.7968 -12.369 5.00989 179.717 -20.9353 0 -4.96962e-016 17.7925 4.22599 -3.54377 90 -3.75827e-016 -3.97569e-016 -7.20053 -4.41074 -178.098 -15.4804 -7.95139e-016 -1.98785e-016 15.2432 -1.809 1.81635 90 -2.60905e-016 -1.59028e-015 
393.711 88.4003 -13.0639 -165.492 -81.6041 103.887 -1.64661 0.0890592 -1.10397 -3.2912 0.210247 -2.20474 -3.2912 0.210248 -2.20475 -8.30751e-012 -9.0191e-006 -5.27751e-005 12.0412 8.23668 -2.86981 177.762 -17.0035 -97.6106 -17.6795 -43.9473 0.973727 -6.28976e-006 -3.18055e-015 -3.97569e-016 -41.0257 -26.5472 -29.4299 178.319 7.67478 102.394 70.165 64.9058 -78.5644 -0.915235 7.95139e-016 3.97569e-016 -39.3309 13.8064 21.6873 -12.3568 5.06093 179.71 -20.9406 3.97569e-016 -5.96354e-016 17.8314 4.2543 -3.55815 90 4.4416e-016 1.98785e-016 -7.17867 -4.33879 -178.104 -15.4571 -7.95139e-016 -3.97569e-016 15.2124 -1.79373 1.74986 90 -2.98177e-016 -7.95139e-016 
393.668 88.3992 -13.0889 -165.611 -81.6388 103.767 -1.64511 0.0958463 -1.10285 -3.28806 0.223864 -2.20985 -3.28806 0.223865 -2.20986 -8.3075e-012 -9.0191e-006 -5.27751e-005 11.9868 8.27519 -2.93001 177.759 -17.1585 -97.5551 -17.7771 -43.5536 0.941655 -6.17691e-006 -6.36111e-015 -7.95139e-016 -40.5898 -26.5069 -29.1607 178.284 7.76513 102.499 70.5875 64.9357 -79.0985 -0.981859 -7.95139e-016 1.98785e-016 -39.2196 13.6887 21.4959 -12.33 5.07622 179.688 -20.9793 -3.97569e-016 -9.93923e-017 17.8919 4.28232 -3.57791 90 -8.13775e-016 1.98785e-016 -7.14365 -4.34684 -178.133 -15.4783 7.95139e-016 1.98785e-016 15.2149 -1.78842 1.72573 90 -5.2181e-016 -7.95139e-016 
393.628 88.3975 -13.0952 -166.081 -81.6696 103.296 -1.64421 0.0826048 -1.10019 -3.2865 0.197284 -2.21168 -3.2865 0.197285 -2.21169 -8.30745e-012 -9.0191e-006 -5.27751e-005 11.9305 8.36152 -3.05544 177.777 -17.3789 -97.4058 -18.015 -43.0021 0.733251 -6.06609e-006 1.27222e-014 1.98785e-016 -40.277 -26.5712 -28.9148 178.259 7.82791 102.581 71.0468 64.9619 -79.6407 -1.09127 0 -0 -39.2068 13.5461 21.253 -12.3302 5.02852 179.652 -21.0016 7.95139e-016 -7.95139e-016 17.9176 4.29882 -3.55046 90 -3.07495e-016 -0 -7.13585 -4.34622 -178.144 -15.5052 0 -3.97569e-016 15.1782 -1.73465 1.55242 90 7.95139e-016 -7.95139e-016 
393.583 88.3969 -13.0971 -166.686 -81.7082 102.718 -1.63413 0.0742715 -1.09701 -3.2665 0.180541 -2.21225 -3.2665 0.180541 -2.21226 -8.3075e-012 -9.0191e-006 -5.27751e-005 11.817 8.41205 -3.22052 177.771 -17.4161 -97.4086 -17.7632 -43.0042 0.852755 -5.95739e-006 -6.36111e-015 3.97569e-016 -39.9503 -26.6321 -28.7595 178.233 7.94782 102.576 71.8196 65.0711 -80.4359 -1.27204 -7.95139e-016 -0 -39.035 13.2293 20.7979 -12.2804 4.89316 179.568 -20.9225 -7.95139e-016 -0 17.8403 4.25662 -3.4756 90 -3.63403e-016 -1.98785e-016 -7.16664 -4.36911 -178.191 -15.6017 0 -0 15.1722 -1.68517 1.40818 90 1.2424e-017 -7.95139e-016 
393.525 88.3868 -13.0966 -167.224 -81.7752 102.193 -1.62075 0.0702708 -1.09435 -3.23984 0.172076 -2.19767 -3.23984 0.172077 -2.19768 -8.30744e-012 -9.0191e-006 -5.27751e-005 11.6494 8.4545 -3.42872 177.768 -17.5117 -97.3814 -17.6623 -43.0605 0.929072 -5.85086e-006 -9.54166e-015 1.98785e-016 -39.8865 -26.7855 -28.83 178.207 8.07741 102.559 72.1827 65.1985 -80.7846 -1.47306 7.95139e-016 1.98785e-016 -38.8533 13.0309 20.4333 -12.3603 5.02998 179.548 -21.1805 1.19271e-015 1.98785e-016 18.0632 4.41952 -3.62011 90 -1.3418e-015 -1.98785e-016 -7.1766 -4.45228 -178.25 -15.7314 7.95139e-016 5.96354e-016 15.2299 -1.68641 1.3849 90 -2.73329e-016 -1.59028e-015 
393.478 88.3846 -13.0913 -167.968 -81.8186 101.465 -1.61151 0.0608703 -1.09323 -3.22156 0.15291 -2.18413 -3.22156 0.15291 -2.18414 -8.30749e-012 -9.0191e-006 -5.27751e-005 11.4811 8.50843 -3.63684 177.76 -17.5614 -97.3867 -17.4427 -43.2394 1.0724 -5.74659e-006 -6.36111e-015 1.98785e-016 -39.8846 -26.7479 -28.8078 178.182 8.19601 102.552 72.5053 65.3164 -81.0575 -1.52582 7.95139e-016 3.97569e-016 -38.5088 12.8901 20.2375 -12.3878 4.96416 179.488 -21.2618 3.97569e-016 1.98785e-016 18.1697 4.4855 -3.61916 90 -9.62863e-016 5.96354e-016 -7.18825 -4.56625 -178.298 -15.7971 1.59028e-015 1.98785e-016 15.2454 -1.66785 1.34058 90 2.98177e-016 1.59028e-015 
393.428 88.3843 -13.0849 -168.5 -81.8332 100.979 -1.61346 0.0552064 -1.09772 -3.21927 0.141689 -2.19328 -3.21927 0.141689 -2.19329 -8.30747e-012 -9.0191e-006 -5.27751e-005 11.3816 8.61599 -3.82281 177.746 -17.6333 -97.4034 -17.2815 -43.1941 1.16167 -5.64465e-006 6.36111e-015 9.93923e-017 -39.833 -26.7557 -28.8208 178.165 8.2894 102.53 72.2206 65.3356 -80.7392 -1.52453 0 3.97569e-016 -37.8917 12.9854 20.2629 -12.3594 4.91285 179.4 -21.1958 -1.19271e-015 -1.98785e-016 18.1171 4.48289 -3.58694 90 6.74004e-016 3.97569e-016 -7.18413 -4.59185 -178.375 -15.7923 0 -1.98785e-016 15.2489 -1.65278 1.29084 90 1.11816e-016 1.59028e-015 
393.395 88.3838 -13.0656 -168.681 -81.8057 100.802 -1.61731 0.0626244 -1.09144 -3.2359 0.156503 -2.18048 -3.2359 0.156503 -2.18049 -8.30747e-012 -9.0191e-006 -5.27751e-005 11.3618 8.6847 -3.93946 177.747 -17.7207 -97.3639 -17.3044 -43.0757 1.13289 -5.54512e-006 -1.27222e-014 1.98785e-016 -39.7418 -26.8988 -28.8991 178.162 8.28509 102.552 72.3818 65.308 -80.7067 -1.41053 -7.95139e-016 3.97569e-016 -37.5483 13.1248 20.3684 -12.4488 4.96966 179.389 -21.2899 0 -5.96354e-016 18.2057 4.54023 -3.63353 90 -3.88251e-016 -3.97569e-016 -7.22128 -4.58791 -178.392 -15.775 0 1.98785e-016 15.2231 -1.62943 1.23702 90 1.36664e-016 -1.59028e-015 
393.379 88.3837 -13.0453 -168.517 -81.8157 100.957 -1.6209 0.0721099 -1.07905 -3.24015 0.175161 -2.15544 -3.24015 0.175161 -2.15545 -8.30747e-012 -9.0191e-006 -5.27751e-005 11.3543 8.77177 -4.03963 177.733 -17.773 -97.3897 -17.1418 -43.3899 1.25151 -5.44806e-006 6.36111e-015 2.98177e-016 -39.6226 -26.7411 -28.6487 178.167 8.29179 102.513 72.2639 65.2711 -80.4813 -1.35232 0 -7.95139e-016 -37.8549 13.2741 20.6073 -12.4102 4.88178 179.364 -21.2124 3.97569e-016 -7.95139e-016 18.1062 4.4679 -3.5231 90 -1.01567e-015 -0 -7.19384 -4.5599 -178.386 -15.7179 -7.95139e-016 -7.95139e-016 15.1868 -1.62358 1.20176 90 -1.2424e-016 -2.38542e-015 
393.361 88.3836 -13.0161 -168.291 -81.8108 101.188 -1.62254 0.0831682 -1.06954 -3.24324 0.197033 -2.13612 -3.24324 0.197033 -2.13612 -8.30746e-012 -9.0191e-006 -5.27751e-005 11.3377 8.79685 -4.1337 177.731 -17.8439 -97.3661 -17.1129 -43.3002 1.27963 -5.35355e-006 3.18055e-015 9.93923e-017 -39.4519 -26.5579 -28.2654 178.185 8.27972 102.409 71.9936 65.2877 -80.1025 -1.28641 -1.59028e-015 -7.95139e-016 -38.3313 13.2872 20.6099 -12.4276 4.91786 179.359 -21.2209 0 -3.97569e-016 18.0865 4.45858 -3.51928 90 -8.04457e-016 1.98785e-016 -7.23814 -4.61602 -178.419 -15.7557 7.95139e-016 -5.96354e-016 15.2285 -1.66285 1.35843 90 -5.34234e-016 -0 
393.343 88.3835 -12.9807 -167.995 -81.807 101.499 -1.61788 0.0836558 -1.06031 -3.23393 0.198124 -2.11763 -3.23393 0.198124 -2.11764 -8.30748e-012 -9.0191e-006 -5.27751e-005 11.2595 8.77465 -4.22798 177.738 -17.9473 -97.3048 -17.1203 -43.08 1.22353 -5.26167e-006 3.18055e-015 9.93923e-017 -39.2717 -26.4422 -28.0825 178.173 8.37377 102.354 71.9237 65.2607 -80.1672 -1.34357 0 3.97569e-016 -38.7833 13.4203 20.6524 -12.4918 5.05455 179.357 -21.3222 -7.95139e-016 1.98785e-016 18.1566 4.51731 -3.59998 90 1.84497e-015 1.98785e-016 -7.27936 -4.58623 -178.462 -15.797 2.38542e-015 9.93923e-016 15.2675 -1.70117 1.48403 90 1.73937e-016 1.59028e-015 
393.34 88.3833 -12.938 -167.633 -81.8161 101.878 -1.61094 0.0839063 -1.05038 -3.22014 0.194902 -2.09786 -3.22014 0.194902 -2.09787 -8.30749e-012 -9.0191e-006 -5.27751e-005 11.1844 8.68798 -4.35413 177.748 -17.9862 -97.2584 -17.0435 -42.8865 1.18106 -5.17249e-006 3.18055e-015 9.93923e-017 -39.1671 -26.4369 -28.0687 178.157 8.47414 102.316 72.2974 65.2918 -80.6935 -1.35366 -7.95139e-016 -0 -39.4253 13.2778 20.5046 -12.5386 5.12755 179.356 -21.4036 3.97569e-016 1.98785e-016 18.2074 4.56979 -3.64688 90 -3.29237e-016 -3.97569e-016 -7.31052 -4.54441 -178.48 -15.8271 3.18056e-015 9.93923e-016 15.2748 -1.70085 1.50794 90 8.57259e-016 -0 
393.338 88.3829 -12.8945 -167.421 -81.8122 102.099 -1.6055 0.0839989 -1.03756 -3.20937 0.191681 -2.07225 -3.20937 0.191681 -2.07226 -8.30749e-012 -9.0191e-006 -5.27751e-005 11.1002 8.55838 -4.44966 177.741 -18.0553 -97.254 -16.9637 -42.8064 1.2485 -5.08608e-006 -6.36111e-015 -1.49089e-016 -39.1165 -26.3286 -27.8688 178.15 8.5328 102.28 71.9995 65.3422 -80.5271 -1.32892 0 3.97569e-016 -39.9066 13.2389 20.5154 -12.5594 5.15288 179.351 -21.401 -1.19271e-015 -3.97569e-016 18.1683 4.54932 -3.62333 90 3.85145e-016 1.98785e-016 -7.36109 -4.55617 -178.5 -15.8671 0 1.98785e-016 15.2975 -1.72898 1.5895 90 -1.11816e-016 -0 
393.327 88.3816 -12.8414 -167.465 -81.8339 102.076 -1.59408 0.0840123 -1.0277 -3.18641 0.197028 -2.05248 -3.18641 0.197028 -2.05249 -8.30746e-012 -9.0191e-006 -5.27751e-005 10.9883 8.43319 -4.52391 177.728 -18.0704 -97.29 -16.9035 -42.7392 1.36859 -5.00251e-006 -6.36111e-015 -4.96962e-017 -39.1918 -26.3723 -27.9055 178.14 8.57695 102.286 71.7469 65.3583 -80.3007 -1.34937 -7.95139e-016 3.97569e-016 -39.937 13.218 20.4912 -12.6258 5.19727 179.334 -21.5005 7.95139e-016 -0 18.2231 4.60173 -3.66644 90 4.47266e-016 -1.98785e-016 -7.40584 -4.60244 -178.54 -15.9235 -7.95139e-016 1.98785e-016 15.3344 -1.75454 1.67907 90 4.34841e-016 -7.95139e-016 
393.333 88.3844 -12.786 -167.751 -81.8543 101.809 -1.594 0.072228 -1.01916 -3.18647 0.173227 -2.03572 -3.18647 0.173227 -2.03573 -8.30756e-012 -9.0191e-006 -5.27751e-005 10.9435 8.37559 -4.50648 177.729 -18.1232 -97.2648 -17.0218 -42.5758 1.30705 -4.92187e-006 0 -0 -39.1923 -26.4462 -27.9628 178.139 8.54048 102.344 71.5681 65.3299 -80.1029 -1.32263 1.59028e-015 -0 -40.0351 13.3157 20.5935 -12.6604 5.16609 179.317 -21.521 3.97569e-016 -0 18.2322 4.62951 -3.66422 90 -8.75895e-016 1.98785e-016 -7.43452 -4.64586 -178.552 -15.9371 7.95139e-016 -3.97569e-016 15.3266 -1.73837 1.66894 90 1.73937e-016 -7.95139e-016 
393.345 88.3879 -12.7312 -168.047 -81.8881 101.535 -1.59227 0.0738133 -1.02096 -3.17998 0.176516 -2.03944 -3.17998 0.176516 -2.03945 -8.30748e-012 -9.0191e-006 -5.27751e-005 10.9088 8.29376 -4.36102 177.717 -18.0698 -97.3247 -17.0809 -42.6556 1.28833 -4.84422e-006 1.27222e-014 9.93923e-017 -39.1256 -26.4187 -27.8639 178.145 8.49226 102.372 71.9079 65.3165 -80.302 -1.25661 0 7.95139e-016 -40.1099 13.2762 20.6856 -12.6848 5.17066 179.305 -21.5346 0 5.96354e-016 18.2147 4.65803 -3.67681 90 1.16786e-015 -3.97569e-016 -7.43772 -4.68239 -178.566 -15.9294 0 -1.98785e-016 15.3118 -1.73822 1.65176 90 -3.10601e-016 -7.95139e-016 
